<?xml version="1.0" encoding="UTF-8" standalone="no"?>
<svg
   xmlns:dc="http://purl.org/dc/elements/1.1/"
   xmlns:cc="http://creativecommons.org/ns#"
   xmlns:rdf="http://www.w3.org/1999/02/22-rdf-syntax-ns#"
   xmlns:svg="http://www.w3.org/2000/svg"
   xmlns="http://www.w3.org/2000/svg"
   id="svg30"
   xml:space="preserve"
   viewBox="0 0 200 200"
   y="0px"
   x="0px"
   version="1.1"><metadata
     id="metadata34"><rdf:RDF><cc:Work
         rdf:about=""><dc:format>image/svg+xml</dc:format><dc:type
           rdf:resource="http://purl.org/dc/dcmitype/StillImage" /></cc:Work></rdf:RDF></metadata><rect
     id="rect2"
     height="200"
     width="200" /><defs
     id="defs99206"><linearGradient
       id="ab91f054-45b1-4106-8c1c-218070c38ff8"
       gradientUnits="userSpaceOnUse"
       x1="90.009521"
       y1="99.304291"
       x2="124.59088"
       y2="99.304291"
       gradientTransform="matrix(2.3792169,0,0,2.3792169,-137.9217,-136.28324)"><stop
         offset="0"
         style="stop-color:#000000;stop-opacity:0.4"
         id="stop13" /><stop
         offset="0.27595"
         style="stop-color:#0F0D0D;stop-opacity:0.28962"
         id="stop15" /><stop
         offset="0.67484"
         style="stop-color:#1E1A1B;stop-opacity:0.13006"
         id="stop17" /><stop
         offset="1"
         style="stop-color:#231F20;stop-opacity:0"
         id="stop19" /></linearGradient><linearGradient
       id="beefcc5a-c351-4b93-9b19-6bdca4cc9359"
       gradientUnits="userSpaceOnUse"
       x1="82.709343"
       y1="124.52972"
       x2="82.709343"
       y2="74.093353"><stop
         offset="0"
         style="stop-color:#000000;stop-opacity:0.3"
         id="stop24" /><stop
         offset="0.21414"
         style="stop-color:#0F0D0D;stop-opacity:0.21727"
         id="stop26" /><stop
         offset="0.52404"
         style="stop-color:#1E1A1B;stop-opacity:0.09755"
         id="stop28" /><stop
         offset="0.77654"
         style="stop-color:#231F20;stop-opacity:0"
         id="stop30" /></linearGradient><linearGradient
       id="b30ce3fa-7680-4676-ae9b-d235d1136933"
       gradientUnits="userSpaceOnUse"
       x1="82.709343"
       y1="124.52972"
       x2="82.709343"
       y2="74.093353"><stop
         offset="0.18736"
         style="stop-color:#FFFFFF;stop-opacity:0"
         id="stop35" /><stop
         offset="0.98876"
         style="stop-color:#FFFFFF;stop-opacity:0.49309"
         id="stop37" /><stop
         offset="1"
         style="stop-color:#FFFFFF;stop-opacity:0.5"
         id="stop39" /></linearGradient></defs><linearGradient
     spreadMethod="pad"
     y2="30%"
     x2="-10%"
     y1="120%"
     x1="30%"
     id="3d_gradient2-logo-6053c558-374d-4d75-a7e5-60250c9639f4"><stop
       id="stop99183"
       stop-opacity="1"
       stop-color="#ffffff"
       offset="0%" /><stop
       id="stop99185"
       stop-opacity="1"
       stop-color="#000000"
       offset="100%" /></linearGradient><linearGradient
     gradientTransform="rotate(-30)"
     spreadMethod="pad"
     y2="30%"
     x2="-10%"
     y1="120%"
     x1="30%"
     id="3d_gradient3-logo-6053c558-374d-4d75-a7e5-60250c9639f4"><stop
       id="stop99188"
       stop-opacity="1"
       stop-color="#ffffff"
       offset="0%" /><stop
       id="stop99190"
       stop-opacity="1"
       stop-color="#cccccc"
       offset="50%" /><stop
       id="stop99192"
       stop-opacity="1"
       stop-color="#000000"
       offset="100%" /></linearGradient><path
     class="c1"
     d="m 98.299088,40.001434 v 0.0043 l -4.28e-4,-0.0057 -22.066428,4.29e-4 -0.0016,0.02117 v -0.0207 L 41.492953,71.578472 v 88.421498 h 34.737661 v -0.035 l 22.06845,-4.3e-4 v 0.002 c 33.198666,0 60.207966,-26.55853 60.207966,-59.75706 0,-33.19866 -27.00928,-60.207935 -60.207942,-60.207935 z m 0,88.386936 -1.43e-4,-0.001 -22.068307,4.3e-4 V 71.578044 l 22.06845,-4.29e-4 v 0.0017 c 15.786702,0 28.630042,12.843322 28.630042,28.630045 0,15.78672 -12.84334,28.17897 -28.630042,28.17897 z"
     stroke-miterlimit="2"
     id="path11"
     style="font-style:normal;font-weight:normal;font-size:medium;line-height:1;font-family:'Brandmark Sans 28';font-variant-ligatures:normal;text-align:center;text-anchor:middle;fill:#25335c;stroke:#25335c;stroke-width:0;stroke-linejoin:miter;stroke-miterlimit:2" /><path
     class="highlight"
     d="m 98.299088,40.001434 v 0.0043 l -4.28e-4,-0.0057 -22.066428,4.29e-4 2.85e-4,31.577633 22.066571,-4.29e-4 v 0.0017 c 15.786702,0 28.630042,12.843322 28.630042,28.630043 0,15.78672 -12.84332,28.17899 -28.630042,28.17899 l -1.43e-4,-10e-4 -22.06845,4.2e-4 1.43e-4,31.57764 22.06845,-4.3e-4 v 0.002 c 33.198662,0 60.207962,-26.55854 60.207962,-59.75706 -2e-5,-33.198687 -27.0093,-60.207961 -60.207962,-60.207961 z"
     stroke-miterlimit="2"
     id="path22"
     style="font-style:normal;font-weight:normal;font-size:medium;line-height:1;font-family:'Brandmark Sans 28';font-variant-ligatures:normal;text-align:center;text-anchor:middle;opacity:1;fill:url(#ab91f054-45b1-4106-8c1c-218070c38ff8);stroke-width:0;stroke-linejoin:miter;stroke-miterlimit:2" /><polygon
     class="highlight"
     points="75.4091,124.52972 90.00959,124.52972 90.00959,74.09335 75.4091,87.36559 "
     transform="matrix(2.3792169,0,0,2.3792169,-137.9217,-136.28324)"
     stroke-miterlimit="2"
     id="polygon33"
     style="font-style:normal;font-weight:normal;font-size:medium;line-height:1;font-family:'Brandmark Sans 28';font-variant-ligatures:normal;text-align:center;text-anchor:middle;opacity:1;fill:url(#beefcc5a-c351-4b93-9b19-6bdca4cc9359);stroke-width:0;stroke-linejoin:miter;stroke-miterlimit:2" /><polygon
     class="highlight"
     points="75.4091,124.52972 90.00959,124.52972 90.00959,74.09335 75.4091,87.36559 "
     transform="matrix(2.3792169,0,0,2.3792169,-137.9217,-136.28324)"
     stroke-miterlimit="2"
     id="polygon42"
     style="font-style:normal;font-weight:normal;font-size:medium;line-height:1;font-family:'Brandmark Sans 28';font-variant-ligatures:normal;text-align:center;text-anchor:middle;opacity:1;fill:url(#b30ce3fa-7680-4676-ae9b-d235d1136933);stroke-width:0;stroke-linejoin:miter;stroke-miterlimit:2" /></svg>
