<svg height="100%" xmlns="http://www.w3.org/2000/svg" xmlns:xlink="http://www.w3.org/1999/xlink" viewBox="0 0 212.1 318.26">
    <defs>
        <clipPath id="cleanser-1" transform="translate(-80.17 -39.32)">
            <path fill="none" d="M133.57 351.24h105.52v6.34H133.57z"></path>
        </clipPath>
        <clipPath id="cleanser-2" transform="translate(-80.17 -39.32)">
            <path fill="none" d="M0 0h370.79v370.79H0z"></path>
        </clipPath>
        <linearGradient id="cleanser-3" x1="87.8" y1="86.69" x2="280.42" y2="248.32" gradientUnits="userSpaceOnUse">
            <stop offset="0" stop-color="#fff"></stop>
            <stop offset="1"></stop>
        </linearGradient>
    </defs>
    <g clip-path="url(#cleanser-1)" opacity=".15">
        <image width="616" height="37" transform="matrix(.17 0 0 .17 53.4 311.92)" xlink:href="/v3/img/logo-preview/cleanser/1.png"></image>
    </g>
    <path d="M102.03 13.51c2.61.08 5.22-.25 6.33 0a32.37 32.37 0 003.83.28c.42 0 4.16-.11 4.61-.11s4-.16 4.94-.09 4.2.15 5.22.2a20.22 20.22 0 002.78-.2 36.31 36.31 0 013.9 0c1.2.07 2.73 0 3.72-.05s1.79-.16 2.52-.15a33.5 33.5 0 013.46.2 17.36 17.36 0 003.3.2c1.39 0 3.18-.1 4.83-.2s3.47-.19 5.13-.12 4.48.14 6.13.12 4.53 0 5.52-.11a15 15 0 013.65-.56c1.73 0 3.71 0 4.19.44s.26 2 .27 2.67.06 5.46 0 6.71-.18 4.84-.4 6.55-.94 5.77-1.23 7.19-1.41 7-1.66 8.8-1.24 7.4-1.41 8.94-.93 6.54-1.18 8.19-1.12 8.63-1.3 10.07-1.29 9-1.48 10.69-.64 5.53-.87 7.17-.74 6.24-1 8.15-.62 5.42-.78 6.74-.78 6.75-1 8.66-.63 5.49-.86 7.69-1 8.47-1.12 9.89-.82 8.53-1.23 12.59-.87 8.67-1.16 11.22-.86 9.35-1.09 11.59-.61 7.35-.77 9.29-.67 8.39-.81 9.64-.52 6.34-.7 8.82-.78 10.59-.89 12.14-.77 10.69-.78 11.92-.6 9.75-.78 13.56-.64 10.72-.69 12.54-.46 8.62-.62 10.14-.43 6.35-.66 8.71-.27 4.24-2.52 5.34a14.81 14.81 0 01-4.1 1c-1.25.2-3.13.28-3.13.28a2.68 2.68 0 01-1.4.18 28.42 28.42 0 00-3.55-.11c-.7 0-3.45.2-4.72.23s-6.16.15-8.18.14-4.57.18-5.95.17-5.62 0-8.16-.06-9.7 0-13.85 0-10.46.08-13 0-7.88-.26-11.45-.5-7-.49-8.85-1.31-2.11-2-2.5-4.82-.6-6.75-.77-9.8-1-17.33-1.23-21.69-1.67-25.9-1.8-28.6-1.06-14.51-1.4-18.51-1.26-14.09-1.69-19-1.28-13.87-1.72-18.33-1.26-12.1-1.71-16.79-1.88-17.11-2.34-21.46-1.81-14.57-2.31-19.12-1.26-10.28-1.92-15.13-2.45-17.52-3.07-22-1.21-8.69-2.31-14.14-1.86-7.94-2.28-14.18c-.14-2 0-9.93 0-10.85s0-1.22.37-1.35a13.12 13.12 0 012.89-.25 21.27 21.27 0 014.26.35 47.16 47.16 0 006.66.26c3 0 7.27-.29 9.41-.42a68.25 68.25 0 016.89.08c3 .09 8.38.24 11.39.27s7.61.18 9.59.17 5-.51 7.5-.5 4.47.24 7.09.33z"
          fill="#fcfcfc"></path>
    <path d="M93.69 212.49h.22V214h.73v.18h-.95zM95.94 213.56a.6.6 0 01-.61.65.58.58 0 01-.58-.63.59.59 0 01.6-.64.58.58 0 01.59.62zm-1 0a.42.42 0 00.37.47c.22 0 .37-.2.37-.48s-.1-.47-.36-.47-.35.27-.35.5zM96.22 213.35v-.38h.19v.23a.37.37 0 01.34-.26h.08v.2h-.07a.3.3 0 00-.3.28.34.34 0 000 .1v.65h-.22zM97.14 213.61a.4.4 0 00.42.43.75.75 0 00.34-.07v.16a.89.89 0 01-.4.08.56.56 0 01-.6-.61.59.59 0 01.57-.66.51.51 0 01.5.57v.1zm.65-.15a.32.32 0 00-.31-.36.37.37 0 00-.34.36zM98.27 213.3v-.33h.19v.19a.42.42 0 01.38-.22.36.36 0 01.34.24.44.44 0 01.14-.16.42.42 0 01.26-.08c.17 0 .41.1.41.53v.71h-.16v-.69c0-.23-.09-.37-.27-.37a.29.29 0 00-.26.2.36.36 0 000 .11v.75h-.21v-.73c0-.19-.09-.33-.26-.33a.3.3 0 00-.27.22.36.36 0 000 .11v.73h-.22zM101.15 212.62a.13.13 0 01-.14.14.13.13 0 01-.13-.14.14.14 0 01.14-.14.13.13 0 01.13.14zm-.25 1.56v-1.21h.23v1.21zM101.49 213.36v-.39h.2v.2a.48.48 0 01.43-.23.55.55 0 01.52.62.57.57 0 01-.56.65.42.42 0 01-.37-.19v.66h-.22zm.22.33v.09a.35.35 0 00.34.26c.23 0 .37-.19.37-.47s-.13-.46-.37-.46a.35.35 0 00-.33.28.29.29 0 000 .09zM102.89 213.96a.66.66 0 00.3.09c.16 0 .23-.08.23-.19s-.06-.16-.22-.22-.33-.2-.33-.34a.38.38 0 01.42-.36.58.58 0 01.3.07v.16a.5.5 0 00-.25-.07.18.18 0 00-.2.17c0 .1.07.15.23.21s.32.18.32.36-.17.37-.46.37a.68.68 0 01-.34-.08zM104.94 213.85a3.22 3.22 0 000 .33h-.2v-.2a.47.47 0 01-.41.23c-.19 0-.42-.1-.42-.53v-.71h.22v.71c0 .23.07.39.28.39a.34.34 0 00.29-.2.5.5 0 000-.12v-.74h.22zM105.31 213.3v-.33h.19v.19a.42.42 0 01.38-.22.35.35 0 01.34.24.44.44 0 01.14-.16.43.43 0 01.27-.08c.16 0 .4.1.4.53v.71h-.2v-.69c0-.23-.09-.37-.27-.37a.29.29 0 00-.26.2.36.36 0 000 .11v.75h-.21v-.73c0-.19-.09-.33-.26-.33a.3.3 0 00-.27.22.36.36 0 000 .11v.73h-.21zM108.99 212.4v1.47a2.91 2.91 0 000 .31h-.16v-.21a.43.43 0 01-.41.24.55.55 0 01-.52-.62.58.58 0 01.54-.65.41.41 0 01.37.18v-.72zm-.22 1.06v-.09a.34.34 0 00-.32-.26c-.23 0-.37.2-.37.47s.12.45.36.45a.34.34 0 00.33-.26v-.1zM110.46 213.56a.6.6 0 01-.61.65.58.58 0 01-.58-.63.59.59 0 01.6-.64.58.58 0 01.59.62zm-1 0c0 .26.15.47.37.47s.37-.2.37-.48-.1-.47-.37-.47-.34.27-.34.5zM110.73 212.4h.22v1.78h-.22zM112.43 213.56a.6.6 0 01-.61.65.58.58 0 01-.58-.63.59.59 0 01.6-.64.58.58 0 01.59.62zm-1 0a.42.42 0 00.37.47c.21 0 .37-.2.37-.48s-.1-.47-.36-.47-.35.27-.35.5zM112.71 213.35v-.38h.19v.23a.36.36 0 01.34-.26h.06v.2h-.08a.3.3 0 00-.29.28.34.34 0 000 .1v.65h-.22zM113.63 213.61a.39.39 0 00.41.43.72.72 0 00.34-.07v.16a.89.89 0 01-.4.08.56.56 0 01-.6-.61.59.59 0 01.57-.66.51.51 0 01.5.57.25.25 0 010 .1zm.65-.15a.32.32 0 00-.31-.36.37.37 0 00-.34.36zM114.73 213.96a.62.62 0 00.29.09c.17 0 .24-.08.24-.19s-.06-.16-.22-.22-.33-.2-.33-.34a.38.38 0 01.42-.36.6.6 0 01.3.07v.16a.5.5 0 00-.25-.07.19.19 0 00-.21.17c0 .1.08.15.24.21s.32.18.32.36-.17.37-.46.37a.68.68 0 01-.34-.08zM116.26 213.96a.62.62 0 00.29.09c.16 0 .24-.08.24-.19s-.06-.16-.23-.22-.32-.2-.32-.34a.38.38 0 01.42-.36.6.6 0 01.3.07v.16a.5.5 0 00-.25-.07.19.19 0 00-.21.17c0 .1.08.15.23.21s.32.18.32.36-.16.37-.45.37a.68.68 0 01-.34-.08zM117.53 212.62a.13.13 0 01-.14.14.13.13 0 01-.13-.14.14.14 0 01.14-.14.13.13 0 01.13.14zm-.24 1.56v-1.21h.22v1.21zM118.14 212.62v.35h.32v.16h-.32v.66c0 .15.05.24.17.24h.13v.17a.53.53 0 01-.2 0 .31.31 0 01-.24-.09.49.49 0 01-.08-.32v-.67h-.19v-.16h.19v-.28zM119.92 214.18v-.15a.44.44 0 01-.37.18.34.34 0 01-.37-.35c0-.29.26-.45.73-.45a.25.25 0 00-.28-.28.7.7 0 00-.32.09v-.14a.72.72 0 01.4-.11c.38 0 .47.25.47.5v.45a1.28 1.28 0 000 .29zm0-.62c-.24 0-.51 0-.51.28a.19.19 0 00.21.21.3.3 0 00.29-.21.15.15 0 000-.07zM120.45 213.3v-.33h.2v.19a.44.44 0 01.39-.22.36.36 0 01.34.24.42.42 0 01.13-.16.48.48 0 01.27-.08c.16 0 .4.1.4.53v.71h-.21v-.69c0-.23-.09-.37-.27-.37a.29.29 0 00-.26.2.36.36 0 000 .11v.75h-.21v-.73c0-.19-.09-.33-.26-.33a.29.29 0 00-.27.22.2.2 0 000 .11v.73h-.22zM122.83 212.62a.14.14 0 01-.15.14.13.13 0 01-.13-.14.14.14 0 01.28 0zm-.25 1.56v-1.21h.22v1.21zM123.4 212.62v.35h.32v.16h-.32v.66c0 .15.05.24.17.24h.13v.17a.49.49 0 01-.2 0 .32.32 0 01-.24-.09.49.49 0 01-.08-.32v-.67h-.19v-.16h.19v-.28zM90.53 215.42h.22v1.51h.73v.18h-1zM92.83 216.49a.6.6 0 01-.61.65.58.58 0 01-.58-.63.59.59 0 01.6-.64.58.58 0 01.59.62zm-1 0a.41.41 0 00.37.46c.22 0 .37-.19.37-.47s-.1-.47-.36-.47-.38.26-.38.5zM93.06 216.27v-.38h.19v.24a.37.37 0 01.34-.26h.06v.21h-.07a.3.3 0 00-.3.28.34.34 0 000 .1v.65h-.22zM93.98 216.54a.4.4 0 00.42.43.68.68 0 00.33-.07v.16a.89.89 0 01-.4.08.57.57 0 01-.6-.62.59.59 0 01.57-.65.51.51 0 01.5.57v.1zm.65-.15c0-.15-.06-.37-.31-.37s-.32.21-.34.37zM95.11 216.22v-.33h.2v.2a.4.4 0 01.38-.22.36.36 0 01.34.24.44.44 0 01.14-.16.42.42 0 01.26-.08c.17 0 .4.1.4.52v.72h-.21v-.69c0-.23-.09-.37-.27-.37a.29.29 0 00-.26.2.36.36 0 000 .11v.75h-.21v-.73c0-.19-.09-.33-.26-.33a.29.29 0 00-.27.22.36.36 0 000 .11v.73h-.22zM97.97 215.42v1.69h-.22v-1.69zM98.37 216.29v-.4h.2v.21a.49.49 0 01.44-.23.55.55 0 01.51.62.57.57 0 01-.55.65.42.42 0 01-.37-.19v.66h-.22zm.22.33v.09a.34.34 0 00.33.26c.24 0 .37-.19.37-.47s-.13-.46-.36-.46a.37.37 0 00-.34.28v.09zM99.77 216.89a.62.62 0 00.29.08c.16 0 .24-.08.24-.18s-.06-.16-.23-.22-.32-.2-.32-.35a.37.37 0 01.42-.35.6.6 0 01.3.07v.16a.5.5 0 00-.25-.07.19.19 0 00-.21.17c0 .1.08.15.23.21s.32.18.32.36-.16.37-.45.37a.68.68 0 01-.34-.09zM101.83 216.78a3.22 3.22 0 000 .33h-.2v-.2a.44.44 0 01-.4.23c-.19 0-.42-.11-.42-.53v-.72h.22v.68c0 .23.07.39.27.39a.34.34 0 00.3-.2.5.5 0 000-.12v-.75h.23zM102.18 216.22v-.33h.2v.2a.41.41 0 01.39-.22.36.36 0 01.34.24.42.42 0 01.13-.16.48.48 0 01.27-.08c.16 0 .4.1.4.52v.72h-.21v-.69c0-.23-.09-.37-.27-.37a.28.28 0 00-.26.2.36.36 0 000 .11v.75h-.22v-.73c0-.19-.08-.33-.25-.33a.29.29 0 00-.27.22.2.2 0 000 .11v.73h-.22zM105.06 215.55a.13.13 0 01-.14.14.14.14 0 110-.28.13.13 0 01.14.14zm-.25 1.56v-1.22h.22v1.22zM105.37 216.89a.62.62 0 00.29.08c.16 0 .24-.08.24-.18s-.06-.16-.23-.22-.32-.2-.32-.35a.37.37 0 01.42-.35.6.6 0 01.3.07l-.05.16a.5.5 0 00-.25-.07.19.19 0 00-.21.17c0 .1.08.15.23.21s.32.18.32.36-.16.37-.45.37a.65.65 0 01-.34-.09zM106.9 216.89a.59.59 0 00.29.08c.16 0 .24-.08.24-.18s-.07-.16-.23-.22-.32-.2-.32-.35a.37.37 0 01.42-.35.63.63 0 01.3.07l-.06.16a.44.44 0 00-.25-.07.18.18 0 00-.2.17c0 .1.07.15.23.21s.32.18.32.36-.16.37-.45.37a.72.72 0 01-.35-.09zM108.17 215.55a.13.13 0 01-.14.14.13.13 0 01-.13-.14.13.13 0 01.14-.14.13.13 0 01.13.14zm-.25 1.56v-1.22h.23v1.22zM108.51 216.22v-.33h.2v.2a.43.43 0 01.39-.22.36.36 0 01.34.24.42.42 0 01.13-.16.48.48 0 01.27-.08c.16 0 .4.1.4.52v.72h-.21v-.69c0-.23-.09-.37-.27-.37a.29.29 0 00-.26.2.36.36 0 000 .11v.75h-.21v-.73c0-.19-.09-.33-.26-.33a.29.29 0 00-.27.22.2.2 0 000 .11v.73h-.22zM110.61 216.29v-.4h.2v.21a.48.48 0 01.44-.23.55.55 0 01.51.62.57.57 0 01-.55.65.45.45 0 01-.38-.19v.66h-.22zm.22.33a.28.28 0 000 .09.34.34 0 00.33.26c.24 0 .37-.19.37-.47s-.13-.46-.36-.46a.37.37 0 00-.34.28v.09zM112.04 215.33h.22v1.78h-.22zM112.71 215.89l.27.72c0 .08.06.18.08.25 0-.07.05-.16.08-.25l.24-.72h.24l-.33.87a2 2 0 01-.42.77.68.68 0 01-.27.14l-.06-.19a.38.38 0 00.19-.11.61.61 0 00.19-.24v-.11l-.45-1.13zM115.4 215.33v1.78h-.2v-.21a.45.45 0 01-.42.24.56.56 0 01-.52-.62.58.58 0 01.55-.65.41.41 0 01.37.18v-.72zm-.22 1.06a.25.25 0 000-.09.32.32 0 00-.32-.26c-.23 0-.36.2-.36.47s.12.45.36.45a.33.33 0 00.32-.26.31.31 0 000-.1zM116.83 216.78a3.22 3.22 0 000 .33h-.2v-.2a.47.47 0 01-.41.23c-.19 0-.42-.11-.42-.53v-.72h.22v.68c0 .23.07.39.28.39a.34.34 0 00.29-.2.5.5 0 000-.12v-.75h.24zM117.15 216.22v-.33h.2v.2a.43.43 0 01.39-.22.36.36 0 01.34.24.53.53 0 01.13-.16.48.48 0 01.27-.08c.16 0 .4.1.4.52v.72h-.21v-.69c0-.23-.09-.37-.27-.37a.29.29 0 00-.26.2.36.36 0 000 .11v.75h-.21v-.73c0-.19-.09-.33-.26-.33a.29.29 0 00-.27.22.36.36 0 000 .11v.73h-.22zM119.25 216.22v-.33h.19v.2a.41.41 0 01.38-.22.36.36 0 01.35.24.42.42 0 01.13-.16.43.43 0 01.27-.08c.16 0 .4.1.4.52v.72h-.22v-.69c0-.23-.08-.37-.26-.37a.28.28 0 00-.26.2.36.36 0 000 .11v.75h-.22v-.73c0-.19-.08-.33-.25-.33a.31.31 0 00-.28.22.37.37 0 000 .11v.73h-.22zM121.4 215.89l.26.72c0 .08.06.18.08.25 0-.07 0-.16.07-.25l.24-.72h.24l-.33.87a2 2 0 01-.42.77.68.68 0 01-.27.14l-.06-.19a.45.45 0 00.2-.11.6.6 0 00.18-.24v-.11l-.45-1.13zM123.3 215.54v.35h.32v.17h-.32v.62c0 .15 0 .24.17.24h.12v.17a.47.47 0 01-.19 0 .31.31 0 01-.24-.1.44.44 0 01-.09-.31v-.67h-.19v-.17h.19v-.29zM123.97 216.54a.4.4 0 00.42.43.72.72 0 00.34-.07v.16a.94.94 0 01-.41.08.57.57 0 01-.6-.62.59.59 0 01.57-.65.52.52 0 01.51.57v.1zm.65-.15c0-.15-.06-.37-.31-.37a.36.36 0 00-.33.37zM125.2 215.89l.18.27.12.19.12-.2.17-.26h.24l-.42.59.43.63h-.21l-.18-.27a2.39 2.39 0 01-.13-.21c0 .07-.09.13-.13.21l-.18.27h-.24l.43-.62-.41-.6zM126.56 215.54v.35h.32v.17h-.32v.62c0 .15.05.24.17.24h.13v.17a.49.49 0 01-.2 0 .33.33 0 01-.24-.1.44.44 0 01-.08-.31v-.67h-.19v-.17h.19v-.29z"
          fill="#25335c"></path>
    <circle cx="106.05" cy="107.34" r="30.59" fill="#25335c"></circle>
    <path d="M89.17 159.96a1.49 1.49 0 00.77.21c.43 0 .68-.23.68-.56s-.17-.48-.62-.65-.86-.47-.86-.93a.94.94 0 011.06-.9 1.55 1.55 0 01.73.16l-.1.39a1.3 1.3 0 00-.62-.16c-.45 0-.63.27-.63.5s.21.46.66.63.84.49.84 1-.38.95-1.15.95a1.76 1.76 0 01-.84-.21zM93.83 159.28a1.16 1.16 0 01-1.18 1.25 1.12 1.12 0 01-1.13-1.22 1.15 1.15 0 011.17-1.25 1.12 1.12 0 011.14 1.22zm-1.88 0c0 .52.3.91.72.91s.72-.39.72-.92-.2-.91-.71-.91-.76.49-.76.94zM94.38 160.48v-2h-.33v-.33h.33v-.11a1.11 1.11 0 01.28-.82.79.79 0 01.57-.22 1.09 1.09 0 01.37.06l-.06.34a.6.6 0 00-.27-.06c-.37 0-.46.33-.46.69v.12h.57v.33h-.55v2zM96.34 157.43v.68h.61v.33h-.61v1.24c0 .29.08.45.32.45a.77.77 0 00.25 0v.33a1.11 1.11 0 01-.38.06.61.61 0 01-.46-.18.85.85 0 01-.17-.62v-1.29h-.37v-.33h.37v-.56zM99.83 160.48v-.3a.88.88 0 01-.72.35.67.67 0 01-.72-.68c0-.57.51-.88 1.42-.88a.48.48 0 00-.54-.54 1.21 1.21 0 00-.61.17l-.1-.28a1.46 1.46 0 01.78-.21c.72 0 .9.49.9 1v.88a4.79 4.79 0 000 .57zm-.06-1.21c-.47 0-1 .07-1 .53a.38.38 0 00.4.41.6.6 0 00.58-.39.78.78 0 000-.14zM100.83 158.75v-.64h.38v.39a.86.86 0 01.78-.44c.33 0 .83.2.83 1v1.41h-.43v-1.37c0-.38-.14-.69-.54-.69a.61.61 0 00-.58.44.56.56 0 000 .2v1.42h-.44zM105.59 157.01V160.48h-.38v-.41a.88.88 0 01-.81.46 1.08 1.08 0 01-1-1.2 1.14 1.14 0 011.06-1.27.81.81 0 01.72.36v-1.41zm-.43 2.07a1.23 1.23 0 000-.19.64.64 0 00-.62-.49c-.45 0-.71.39-.71.91s.23.87.7.87a.65.65 0 00.63-.51 1.1 1.1 0 000-.18zM107.35 160.48v-3.29h.48l1 1.66a9.09 9.09 0 01.59 1.07V157.19h.4v3.29h-.43l-1-1.67a12.52 12.52 0 01-.62-1.1v2.77zM112.69 159.28a1.15 1.15 0 01-1.17 1.25 1.13 1.13 0 01-1.14-1.22 1.15 1.15 0 011.17-1.25 1.12 1.12 0 011.14 1.22zm-1.87 0c0 .52.29.91.71.91s.72-.39.72-.92-.2-.91-.71-.91-.71.49-.71.94zM115.21 159.83v.65h-.38v-.39a.88.88 0 01-.78.44c-.37 0-.82-.2-.82-1v-1.39h.43v1.31c0 .45.14.75.53.75a.63.63 0 00.57-.39.73.73 0 000-.22v-1.45h.43zM115.93 158.85v-.74h.38v.47a.72.72 0 01.66-.52h.12v.41h-.15a.6.6 0 00-.58.55 1.12 1.12 0 000 .2v1.26h-.42zM117.55 157.01h.43v1.47a.86.86 0 01.3-.3.93.93 0 01.44-.12c.32 0 .83.2.83 1v1.41h-.43v-1.36c0-.38-.14-.7-.55-.7a.59.59 0 00-.57.43.4.4 0 000 .2v1.43h-.43zM120.2 160.04a1.16 1.16 0 00.57.17c.31 0 .46-.16.46-.35s-.13-.32-.44-.44-.63-.38-.63-.67a.73.73 0 01.82-.69 1.15 1.15 0 01.58.15l-.11.31a.88.88 0 00-.48-.14c-.26 0-.4.15-.4.32s.14.29.45.4.62.37.62.72-.32.71-.88.71a1.35 1.35 0 01-.67-.17zM122.67 157.45a.24.24 0 01-.27.26.25.25 0 01-.26-.26.26.26 0 01.27-.27.25.25 0 01.26.27zm-.47 3v-2.37h.43v2.37zM123.34 158.75v-.64h.38v.39a.89.89 0 01.79-.44c.32 0 .83.2.83 1v1.41h-.43v-1.37c0-.38-.14-.69-.55-.69a.6.6 0 00-.57.44.56.56 0 000 .2v1.42h-.43zM128.09 158.11v2.03a1.33 1.33 0 01-.34 1.07 1.23 1.23 0 01-.86.29 1.48 1.48 0 01-.78-.2l.1-.33a1.33 1.33 0 00.7.19c.44 0 .76-.23.76-.82v-.27a.85.85 0 01-.75.4 1.06 1.06 0 01-1-1.16 1.13 1.13 0 011.07-1.25.76.76 0 01.73.41v-.36zm-.45.94a.61.61 0 00-.62-.65c-.41 0-.7.34-.7.89s.23.85.69.85a.63.63 0 00.6-.44.91.91 0 000-.23zM95.19 163.05h1.77v.36h-1.34v1.09h1.21v.35h-1.24v1.49h-.43zM98.65 166.34v-.3a.9.9 0 01-.73.36.68.68 0 01-.72-.68c0-.57.51-.89 1.42-.88a.49.49 0 00-.54-.55 1.15 1.15 0 00-.61.18l-.1-.28a1.46 1.46 0 01.78-.21c.72 0 .9.49.9 1v.89a3.2 3.2 0 000 .56zm-.07-1.2c-.47 0-1 .07-1 .53a.38.38 0 00.41.41.6.6 0 00.57-.4.59.59 0 000-.13zM101.38 166.25a1.54 1.54 0 01-.68.14 1.13 1.13 0 01-1.18-1.21 1.2 1.2 0 011.27-1.25 1.43 1.43 0 01.6.12l-.1.33a1.09 1.09 0 00-.5-.11.89.89 0 000 1.78 1.1 1.1 0 00.52-.12zM102.09 165.24a.76.76 0 00.81.82 1.55 1.55 0 00.66-.12l.07.3a1.88 1.88 0 01-.79.15 1.1 1.1 0 01-1.16-1.19 1.15 1.15 0 011.11-1.27 1 1 0 011 1.11 1 1 0 010 .2zm1.26-.31a.61.61 0 00-.59-.7.71.71 0 00-.66.7zM107.65 166.23a2 2 0 01-.87.16 1.54 1.54 0 01-1.62-1.66 1.64 1.64 0 011.72-1.73 1.92 1.92 0 01.78.14l-.1.35a1.59 1.59 0 00-.67-.14 1.23 1.23 0 00-1.28 1.36 1.19 1.19 0 001.26 1.32 1.73 1.73 0 00.69-.13zM108.17 162.88h.43v3.46h-.43zM109.57 165.24a.76.76 0 00.81.82 1.53 1.53 0 00.65-.12l.07.3a1.86 1.86 0 01-.78.15 1.09 1.09 0 01-1.16-1.19 1.14 1.14 0 011.1-1.27 1 1 0 011 1.11v.2zm1.26-.31a.62.62 0 00-.6-.7.71.71 0 00-.66.7zM113.08 166.34v-.3a.86.86 0 01-.72.36.67.67 0 01-.72-.68c0-.57.51-.89 1.42-.88a.49.49 0 00-.54-.55 1.12 1.12 0 00-.61.18l-.1-.28a1.46 1.46 0 01.78-.21c.72 0 .9.49.9 1v.89a3.26 3.26 0 000 .56zm-.06-1.2c-.47 0-1 .07-1 .53a.38.38 0 00.4.41.6.6 0 00.58-.4.59.59 0 000-.13zM114.13 164.62a6.22 6.22 0 000-.64h.38v.39a.85.85 0 01.78-.44c.33 0 .83.19.83 1v1.41h-.43v-1.36c0-.38-.14-.7-.54-.7a.63.63 0 00-.61.64v1.42h-.43zM116.83 165.9a1 1 0 00.56.17c.31 0 .46-.15.46-.35s-.12-.32-.44-.43-.62-.39-.62-.67a.72.72 0 01.81-.69 1.15 1.15 0 01.58.14l-.1.31a1.07 1.07 0 00-.49-.13c-.25 0-.39.14-.39.32s.14.28.45.4.62.36.62.71-.33.71-.89.71a1.29 1.29 0 01-.66-.16zM119.02 165.24a.76.76 0 00.81.82 1.5 1.5 0 00.65-.12l.08.3a1.88 1.88 0 01-.79.15 1.09 1.09 0 01-1.16-1.19 1.15 1.15 0 011.11-1.27 1 1 0 011 1.11v.2zm1.26-.31a.62.62 0 00-.6-.7.72.72 0 00-.66.7zM121.23 164.68v-.74h.37v.46a.71.71 0 01.65-.51h.13v.41h-.15a.61.61 0 00-.58.55 1.23 1.23 0 000 .2v1.26h-.42z"
          fill="#25335c"></path>
</svg>